<?xml version="1.0" encoding="utf-8"?>
<!-- Generator: Adobe Illustrator 25.2.3, SVG Export Plug-In . SVG Version: 6.00 Build 0)  -->
<svg version="1.1" id="Calque_1" xmlns="http://www.w3.org/2000/svg" xmlns:xlink="http://www.w3.org/1999/xlink" x="0px" y="0px"
	 viewBox="0 0 40 40" style="enable-background:new 0 0 40 40;" xml:space="preserve">
<style type="text/css">
	.st0{fill:#3E0018;}
</style>
<path class="st0" d="M20,0.1C9,0.1,0.1,9,0.1,20S9,39.9,20,39.9S39.9,31,39.9,20S31,0.1,20,0.1z M32.3,28.5c1.1,1.1,1.1,2.9,0,4.1
	c-1.1,1.1-2.9,1.1-4.1,0L20,24.5l-8.2,8.2c-1.1,1.1-2.9,1.1-4.1,0c-1.1-1.1-1.1-2.9,0-4.1l8.2-8.2l-8.3-8.3c-1.1-1.2-1.1-3,0-4.1
	c1.2-1.1,3-1.1,4.1,0l8.3,8.3L28.3,8c1.1-1.1,2.9-1.1,4.1,0c1.1,1.1,1.1,2.9-0.1,4.1l-8.2,8.2L32.3,28.5z"/>
</svg>
