<?xml version="1.0" encoding="utf-8"?>
<!-- Generator: Adobe Illustrator 25.4.1, SVG Export Plug-In . SVG Version: 6.00 Build 0)  -->
<svg version="1.1" id="Calque_1" xmlns="http://www.w3.org/2000/svg" xmlns:xlink="http://www.w3.org/1999/xlink" x="0px" y="0px"
	 viewBox="0 0 40 40" style="enable-background:new 0 0 40 40;" xml:space="preserve">
<style type="text/css">
	.st0{fill-rule:evenodd;clip-rule:evenodd;fill:#FFFFFF;}
</style>
<path class="st0" d="M20,0.2C9.1,0.2,0.2,9.1,0.2,20S9.1,39.8,20,39.8S39.8,30.9,39.8,20S30.9,0.2,20,0.2z M3.3,27.3v-9.4l3.2-4.5
	l3.4,4.5h3.4L20,9.1l6.8,8.8l3.4,0l3.3-4.6l3.2,4.6v9.4H3.3z"/>
<polygon class="st0" points="21,16.3 19.1,16.3 19.1,19.6 15.9,19.6 15.9,21.1 19.1,21.2 19.1,24.5 20.9,24.5 21,21.2 24.1,21.2 
	24.1,19.6 21,19.6 "/>
</svg>
