<?xml version="1.0" encoding="utf-8"?>
<!-- Generator: Adobe Illustrator 25.3.1, SVG Export Plug-In . SVG Version: 6.00 Build 0)  -->
<svg version="1.1" id="Calque_1" xmlns="http://www.w3.org/2000/svg" xmlns:xlink="http://www.w3.org/1999/xlink" x="0px" y="0px"
	 viewBox="0 0 40 40" style="enable-background:new 0 0 40 40;" xml:space="preserve">
<style type="text/css">
	.st0{fill:#3E0018;}
</style>
<g>
	<path class="st0" d="M25.7,15.2c-0.5,0-0.9,0.2-1.2,0.5S24,16.4,24,16.9c0,0.5,0.2,0.9,0.5,1.2s0.7,0.5,1.2,0.5
		c0.5,0,0.9-0.2,1.2-0.5s0.5-0.7,0.5-1.2c0-0.5-0.2-0.9-0.5-1.2S26.2,15.2,25.7,15.2z"/>
	<path class="st0" d="M17,16.1c0.2,0,0.3-0.1,0.3-0.1c0-0.4-0.1-0.7-0.4-1s-0.6-0.4-0.9-0.4c-0.4,0-0.7,0.2-0.9,0.5
		c-0.2,0.3-0.3,0.6-0.3,1c0,0.2,0.1,0.2,0.2,0.2C15.5,16.3,16.1,16.2,17,16.1z"/>
	<path class="st0" d="M20,0.1C9,0.1,0.1,9,0.1,20S9,39.9,20,39.9S39.9,31,39.9,20S31,0.1,20,0.1z M11.2,17c-0.1,0.3-0.7,1.4-1.9,3.2
		c-0.2,0.3-0.7,1-1.5,2C7,23.4,6.5,24,6.4,24c-0.1,0.1-1,0.1-2.7,0.1c-0.3,0-0.4,0-0.5-0.1c-0.1-0.2-0.2-0.5-0.3-0.9
		c-0.1-0.2-0.2-0.4-0.3-0.6c-0.1-0.3-0.2-0.5-0.2-0.6c0-0.1,0-0.2,0.1-0.2c1.6,0,2.4-0.4,2.4-1.1c0-0.1-0.4-0.6-1.2-1.7
		c-0.8-1.1-1.3-1.8-1.4-2.1c0-0.2-0.1-0.8-0.1-1.8c0-0.2,0-0.5,0-1s0-0.7,0-1c0-0.2,0.1-0.2,0.3-0.2c0.3,0,0.8,0,1.4,0s1.1,0,1.4,0
		c0.1,0,0.2,0.1,0.2,0.3c0,0.2,0,0.4,0,0.7s0,0.6,0,0.7c0,0.7,0,1.2,0,1.5c0,0.2,0.2,0.6,0.5,1.1c0.4,0.6,0.6,0.9,0.8,0.9
		c0.1,0,0.4-0.3,0.7-0.9C7.8,16.8,8,16.4,8,16.2c0.1-0.5,0.1-1.1,0.1-1.7c0-0.2,0-0.4,0-0.7s0-0.6,0-0.7c0-0.1,0.1-0.2,0.2-0.2
		c0.3,0,0.7,0,1.3,0s1,0,1.3,0c0.2,0,0.3,0.1,0.3,0.2c0.1,0.3,0.1,0.9,0.1,1.9C11.3,16.1,11.3,16.8,11.2,17z M12,17
		c0-1.3,0.4-2.5,1.2-3.3c0.8-0.9,1.9-1.3,3.2-1.3c1.1,0,2.1,0.4,2.9,1.2s1.2,1.8,1.2,2.9c0,0.6-0.2,0.9-0.6,1
		c-0.1,0-0.7,0.1-1.8,0.2c-0.7,0.1-1.7,0.2-3.1,0.3c0.1,0.4,0.3,0.7,0.7,0.9c0.3,0.2,0.7,0.2,1.2,0.2c0.5,0,1-0.1,1.6-0.4
		c0.2-0.1,0.4-0.3,0.7-0.4c0.1,0.1,0.3,0.4,0.6,0.9s0.4,0.9,0.4,1c0,0,0,0.1-0.1,0.2c-0.7,0.8-1.8,1.2-3.3,1.2
		c-1.4,0-2.5-0.4-3.4-1.2C12.4,19.4,12,18.3,12,17z M23.8,27.9c0,0.2,0,0.6-0.1,1.1c0,0.1-0.1,0.1-0.1,0.1c-0.3,0-0.7,0-1.2,0
		c-0.6,0-1,0-1.2,0c0,0.2,0,0.7,0,1.3c0,0.6,0,1,0,1.3c0,0.2-0.4,0.3-1.3,0.3c-0.9,0-1.3-0.1-1.3-0.2c0-0.4,0-0.8,0-1.4
		c0-0.8,0-1.3,0-1.4c-1.5,0-2.3,0.1-2.4,0.1c-0.1,0-0.2-0.1-0.2-0.3c0-0.1,0-0.4,0.1-1c0-0.4,0-0.7,0-1.1c0.1-0.1,0.1-0.1,0.2-0.1
		c0.3,0,0.7,0,1.1,0c0.6,0,1,0,1.1,0c0-0.5,0-1.1,0-1.7v-1c0-0.1,0.1-0.2,0.2-0.2c0.2,0,0.5,0,1,0s0.7,0,1,0c0.3,0,0.4,0,0.4,0.1
		c0,0.3,0,0.7,0,1.3s0,1,0,1.3c1.3,0,2.1,0,2.6,0c0.1,0,0.2,0.1,0.2,0.2C23.9,26.9,23.8,27.3,23.8,27.9z M30.5,13.5
		c-0.2,1.1-0.3,2.2-0.3,3.4c0,0.5,0,1.1,0.1,2s0.1,1.6,0.1,2c0,0.2-0.1,0.4-0.3,0.4c-0.7,0.1-1.6,0.1-2.5,0.1
		c-0.1,0-0.2-0.2-0.2-0.5c0-0.3-0.1-0.5-0.1-0.5c0,0-0.1,0.1-0.2,0.1c-0.7,0.7-1.4,1-2.1,1c-1.1,0-2.1-0.5-2.8-1.4
		c-0.7-0.8-1.1-1.9-1.1-3c0-1.4,0.4-2.4,1.1-3.3c0.8-0.9,1.8-1.3,3.1-1.3c0.9,0,1.6,0.3,2.2,1c0,0,0,0,0.1,0c0.1,0,0.1-0.1,0.2-0.4
		s0.1-0.4,0.2-0.4c0.2,0,0.6,0.1,1.2,0.2c0.6,0.1,1,0.2,1.2,0.3c0.1,0,0.1,0.1,0.1,0.1C30.5,13.3,30.5,13.4,30.5,13.5z M37.8,15.1
		c0,0.3,0,0.6,0,0.7c0,0.2-0.1,0.3-0.4,0.3c-0.1,0-0.3,0-0.5,0c-0.2,0-0.4,0-0.5,0c-0.5,0-0.8,0.1-1,0.2s-0.3,0.5-0.3,0.9
		c0,0.3,0,0.6,0,1.1c0,0.5,0,0.9,0,1.1c0,0.2,0,0.4,0,0.8s0,0.6,0,0.8c0,0.1-0.1,0.2-0.3,0.2c-0.3,0-0.7,0-1.3,0c-0.6,0-1,0-1.3-0.1
		c-0.2,0-0.3-0.1-0.3-0.3c0-0.5,0-1.2,0-2.1s0-1.6,0-2.1c0-1.4-0.1-2.5-0.4-3.4c0-0.1,0-0.1,0-0.1c0-0.1,0-0.1,0.1-0.2
		c0.3,0,0.8-0.1,1.4-0.2c0.9-0.2,1.4-0.3,1.4-0.3c0.1,0,0.2,0.2,0.2,0.6s0.1,0.6,0.2,0.6c-0.1,0,0.2-0.2,0.7-0.5s1.1-0.5,1.6-0.5
		c0.3,0,0.5,0.1,0.5,0.2c0,0.2,0,0.4-0.1,0.7c0,0.3-0.1,0.6-0.1,0.7C37.8,14.6,37.8,14.8,37.8,15.1z"/>
</g>
</svg>
