<svg id="logo_CAVE" data-name="logo CAVE" xmlns="http://www.w3.org/2000/svg" viewBox="0 0 194.92 47.1"><defs><style>.cls-1{fill:#fff;}</style></defs><g id="texte"><g id="CAVE"><polygon id="E" class="cls-1" points="194.92 6.19 194.92 0.48 181.15 0.48 178.26 0.48 175.12 0.48 175.12 46.62 178.26 46.62 181.15 46.62 194.92 46.62 194.92 40.91 181.15 40.91 181.15 26.57 193.33 26.57 193.33 20.85 181.15 20.85 181.15 6.19 194.92 6.19"/><polygon id="V" class="cls-1" points="160.52 35.9 154.4 0.48 148.11 0.48 157.38 46.62 163.66 46.62 172.93 0.48 166.65 0.48 160.52 35.9"/><path id="A" class="cls-1" d="M147.86,52.76h6.47L143.67,6.61h-5.52L127.48,52.76H134l1.9-10.06H146ZM136.94,37l4-21,4,21Z" transform="translate(-3.01 -6.13)"/><path id="C" class="cls-1" d="M122.6,7.53a12.71,12.71,0,0,0-11.6,0,9.08,9.08,0,0,0-3.66,4.05A14.62,14.62,0,0,0,106.07,18V41.43a14.58,14.58,0,0,0,1.27,6.36A9,9,0,0,0,111,51.84a12.75,12.75,0,0,0,11.58,0,9,9,0,0,0,3.67-4.05,14.87,14.87,0,0,0,1.25-6.36v-2h-6.09v2a8.5,8.5,0,0,1-.54,3.2,4.25,4.25,0,0,1-1.59,2,4.38,4.38,0,0,1-2.51.7,4.31,4.31,0,0,1-2.49-.7,4.42,4.42,0,0,1-1.58-2,8.29,8.29,0,0,1-.56-3.2V18a8.43,8.43,0,0,1,.56-3.24,4.53,4.53,0,0,1,1.58-2,4.39,4.39,0,0,1,2.49-.69,4.45,4.45,0,0,1,2.51.69,4.35,4.35,0,0,1,1.59,2,8.56,8.56,0,0,1,.54,3.21v2h6.09v-2a14.81,14.81,0,0,0-1.25-6.36A9,9,0,0,0,122.6,7.53Z" transform="translate(-3.01 -6.13)"/></g></g><path id="bouteil" class="cls-1" d="M102.3,43.7c0-1.66.08-25.75.06-27.68,0-5.11,3.94-8.75,3.94-8.75-10.12,0-26.26,0-38,0-5.57,0-10.85,3.83-12.43,5.23-5.34,4.77-3.82,7.19-10.08,9.11-3.66.65-30.92.28-31.67.27-.09-.5-.09-.91-.29-1.09s-8.06-.45-8.54.09a2.65,2.65,0,0,0-.29,1c-.42,0-1.59,0-2,0,0,.47,0,15.4,0,16,.49,0,1.36,0,2,0a2.14,2.14,0,0,0,.31,1.21c.21.21,8.31.18,8.57-.11A1.81,1.81,0,0,0,14.13,38c.72,0,29-.23,31.66.08,3.43.78,3.71,2.21,8.51,7.81a17.82,17.82,0,0,0,12.93,6.66c9.71.35,35.27.23,40,.23C106.33,51.86,102.28,48.43,102.3,43.7Zm-21.8-6H78.11V30.29a2.75,2.75,0,0,0-.67-2,2.45,2.45,0,0,0-1.87-.71,2.22,2.22,0,0,0-1.73.68,2.83,2.83,0,0,0-.61,1.92v7.47H70.84V30.29a2.88,2.88,0,0,0-.63-2,2.28,2.28,0,0,0-1.79-.71,2.5,2.5,0,0,0-1.81.62A2.33,2.33,0,0,0,66,30v7.7H63.58V25.5H66v1.69a4,4,0,0,1,1.22-1.27,3.59,3.59,0,0,1,2-.6,3.92,3.92,0,0,1,2.18.58,3.7,3.7,0,0,1,1.38,1.69l0,.15A4.65,4.65,0,0,1,74.27,26a3.55,3.55,0,0,1,2.08-.66,4.1,4.1,0,0,1,2.24.58A3.6,3.6,0,0,1,80,27.59a6.63,6.63,0,0,1,.49,2.69Zm7.58,2.85a3.62,3.62,0,0,1-.74,1.32,2.59,2.59,0,0,1-1.12.69,5.54,5.54,0,0,1-1.64.21H84.1V40.44h.48a1.85,1.85,0,0,0,1.06-.27,2.12,2.12,0,0,0,.68-.93l.58-1.77-4.41-12h2.44L88,34.15l2.83-8.65h2.44Z" transform="translate(-3.01 -6.13)"/></svg>