<?xml version="1.0" encoding="utf-8"?>
<!-- Generator: Adobe Illustrator 25.2.3, SVG Export Plug-In . SVG Version: 6.00 Build 0)  -->
<svg version="1.1" id="Calque_1" xmlns="http://www.w3.org/2000/svg" xmlns:xlink="http://www.w3.org/1999/xlink" x="0px" y="0px"
	 viewBox="0 0 40 40" style="enable-background:new 0 0 40 40;" xml:space="preserve">
<style type="text/css">
	.st0{fill-rule:evenodd;clip-rule:evenodd;fill:#3E0018;}
</style>
<g>
	<path class="st0" d="M20,0.2C9.1,0.2,0.2,9.1,0.2,20S9.1,39.8,20,39.8S39.8,30.9,39.8,20S30.9,0.2,20,0.2z M25.2,36.6
		c0,0.3-0.3,0.6-0.6,0.6h-9.4c-0.3,0-0.6-0.2-0.6-0.6c0-3.2,0-18.9,0-20.8c0-3.3,3.8-4.7,3.8-7c0-1.6,0-7,0-7h3.3c0,0,0,5.3,0,7
		c0,2.3,3.5,3.6,3.5,7.1C25.3,17.7,25.2,33.5,25.2,36.6z"/>
	<polygon class="st0" points="21,15.4 19.1,15.4 19.1,18.7 15.9,18.7 15.9,20.2 19.1,20.3 19.1,23.6 20.9,23.6 21,20.3 24.1,20.3 
		24.1,18.7 21,18.7 	"/>
</g>
</svg>
