<?xml version="1.0" encoding="utf-8"?>
<!-- Generator: Adobe Illustrator 25.2.3, SVG Export Plug-In . SVG Version: 6.00 Build 0)  -->
<svg version="1.1" id="Calque_1" xmlns="http://www.w3.org/2000/svg" xmlns:xlink="http://www.w3.org/1999/xlink" x="0px" y="0px"
	 viewBox="0 0 40 40" style="enable-background:new 0 0 40 40;" xml:space="preserve">
<style type="text/css">
	.st0{fill:#FFFFFF;}
</style>
<path class="st0" d="M33.5,10.4L11.2,32.7c-1.2,1.2-3.2,1.2-4.5,0l0,0c-1.2-1.2-1.2-3.2,0-4.5L29.1,5.9c1.2-1.2,3.2-1.2,4.5,0l0,0
	C34.8,7.1,34.8,9.1,33.5,10.4z"/>
<path class="st0" d="M11.1,5.8l22.3,22.3c1.2,1.2,1.2,3.2,0,4.5l0,0c-1.2,1.2-3.2,1.2-4.5,0L6.6,10.3C5.4,9,5.4,7,6.6,5.8l0,0
	C7.9,4.6,9.9,4.6,11.1,5.8z"/>
</svg>
