<?xml version="1.0" encoding="utf-8"?>
<!-- Generator: Adobe Illustrator 25.3.0, SVG Export Plug-In . SVG Version: 6.00 Build 0)  -->
<svg version="1.1" id="Calque_1" xmlns="http://www.w3.org/2000/svg" xmlns:xlink="http://www.w3.org/1999/xlink" x="0px" y="0px"
	 viewBox="0 0 40 40" style="enable-background:new 0 0 40 40;" xml:space="preserve">
<style type="text/css">
	.st0{fill-rule:evenodd;clip-rule:evenodd;fill:#FFFFFF;}
</style>
<path class="st0" d="M20,0.2C9.1,0.2,0.2,9.1,0.2,20S9.1,39.8,20,39.8S39.8,30.9,39.8,20S30.9,0.2,20,0.2z M10.3,7.4
	C11.8,5.9,13.9,5,16.1,5c2.3,0,4.3,0.9,5.8,2.4s2.4,3.5,2.4,5.8s-0.9,4.3-2.4,5.8s-3.5,2.4-5.8,2.4s-4.3-0.9-5.8-2.4
	C8.9,17.5,8,15.4,8,13.2C8,10.9,8.9,8.9,10.3,7.4z M16.1,32.7c-6.1,0-9.8-1.6-9.8-3.3c0-3.3,3.7-6.5,9.8-6.5c5.9,0,9.8,3.3,9.8,6.5
	C25.9,31.1,21.8,32.7,16.1,32.7z M25.9,21.3c-0.9,0-1.6-0.7-1.6-1.6s0.7-1.6,1.6-1.6h9.8c0.9,0,1.6,0.7,1.6,1.6s-0.7,1.6-1.6,1.6
	H25.9z"/>
</svg>
