<?xml version="1.0" encoding="utf-8"?>
<!-- Generator: Adobe Illustrator 25.2.3, SVG Export Plug-In . SVG Version: 6.00 Build 0)  -->
<svg version="1.1" id="Calque_1" xmlns="http://www.w3.org/2000/svg" xmlns:xlink="http://www.w3.org/1999/xlink" x="0px" y="0px"
	 viewBox="0 0 40 40" style="enable-background:new 0 0 40 40;" xml:space="preserve">
<style type="text/css">
	.st0{fill:#FFFFFF;}
</style>
<path class="st0" d="M35.7,9.6H4.1C2.4,9.6,1,8.2,1,6.5l0,0c0-1.7,1.4-3.2,3.2-3.2h31.6c1.7,0,3.2,1.4,3.2,3.2l0,0
	C38.9,8.2,37.5,9.6,35.7,9.6z"/>
<path class="st0" d="M35.7,23.5H4.1c-1.7,0-3.2-1.4-3.2-3.2l0,0c0-1.7,1.4-3.2,3.2-3.2h31.6c1.7,0,3.2,1.4,3.2,3.2l0,0
	C38.9,22.1,37.5,23.5,35.7,23.5z"/>
<path class="st0" d="M35.9,37.4H4.3c-1.7,0-3.2-1.4-3.2-3.2l0,0c0-1.7,1.4-3.2,3.2-3.2h31.6c1.7,0,3.2,1.4,3.2,3.2l0,0
	C39,36,37.6,37.4,35.9,37.4z"/>
</svg>
